<?xml version="1.0" encoding="UTF-8" standalone="no"?>
<svg xmlns="http://www.w3.org/2000/svg" width="300" height="300" viewBox="0 0 300 300">
  <rect width="300" height="300" fill="#6a0dad"/>
  
  <!-- Decorative elements -->
  <circle cx="150" cy="100" r="60" fill="#8a2be2" opacity="0.7"/>
  
  <!-- Face outline -->
  <circle cx="150" cy="100" r="50" fill="#e0e0e0"/>
  
  <!-- Eyes -->
  <circle cx="130" cy="90" r="5" fill="#333"/>
  <circle cx="170" cy="90" r="5" fill="#333"/>
  
  <!-- Nose and mouth -->
  <path d="M150 100 L150 110 M140 120 Q150 130 160 120" stroke="#333" stroke-width="2" fill="none"/>
  
  <!-- Turban -->
  <path d="M100 70 Q150 30 200 70 Q200 90 200 100 Q150 120 100 100 Q100 90 100 70Z" fill="#f39c12"/>
  <circle cx="150" cy="60" r="10" fill="#e74c3c"/>
  
  <!-- Beard -->
  <path d="M120 120 Q150 160 180 120 Q150 140 120 120Z" fill="#333"/>
  
  <!-- Decorative elements for astrology theme -->
  <circle cx="50" cy="200" r="20" fill="none" stroke="#f39c12" stroke-width="2"/>
  <circle cx="250" cy="200" r="20" fill="none" stroke="#f39c12" stroke-width="2"/>
  
  <path d="M50 200 L100 230 M250 200 L200 230" stroke="#f39c12" stroke-width="2"/>
  
  <!-- Stars -->
  <path d="M150 180 L155 190 L165 190 L157 197 L160 207 L150 200 L140 207 L143 197 L135 190 L145 190 Z" fill="#f39c12"/>
  
  <path d="M80 250 L83 257 L90 257 L85 262 L87 270 L80 265 L73 270 L75 262 L70 257 L77 257 Z" fill="#f39c12" opacity="0.7"/>
  
  <path d="M220 250 L223 257 L230 257 L225 262 L227 270 L220 265 L213 270 L215 262 L210 257 L217 257 Z" fill="#f39c12" opacity="0.7"/>
  
  <!-- Text -->
  <text x="150" y="240" font-family="Arial" font-size="16" fill="#ffffff" text-anchor="middle">Vedic Astrologer</text>
</svg>